<svg width="512" height="512" viewBox="0 0 100 100" fill="none" xmlns="http://www.w3.org/2000/svg">
  <rect width="100" height="100" rx="14" fill="#0c0e12"/>
  <path d="M50 5L89.5 27.5V72.5L50 95L10.5 72.5V27.5L50 5Z" stroke="#4dd9ac" stroke-width="1" stroke-opacity="0.3" stroke-dasharray="4 2"/>
  <path d="M50 15L80.5 32.5V67.5L50 85L19.5 67.5V32.5L50 15Z" stroke="#4dd9ac" stroke-width="1.5" stroke-opacity="0.6"/>
  <path d="M50 25L72 75H60L50 52L40 75H28L50 25Z" fill="#4dd9ac" fill-opacity="0.1"/>
  <path d="M50 25L72 75M50 25L28 75M38 65H62" stroke="#4dd9ac" stroke-width="3.5" stroke-linecap="square" stroke-linejoin="miter"/>
  <path d="M50 0V10M50 90V100M0 50H10M90 50H100" stroke="#4dd9ac" stroke-width="1" stroke-opacity="0.4"/>
  <path d="M15 30L20 27M85 30L80 27M15 70L20 73M85 70L80 73" stroke="#4dd9ac" stroke-width="1.5" stroke-opacity="0.8"/>
  <circle cx="50" cy="52" r="2.5" fill="#4dd9ac"/>
  <circle cx="50" cy="52" r="6" stroke="#4dd9ac" stroke-width="0.5" stroke-opacity="0.5"/>
</svg>
